# xmcd
#
# Track frame offsets:
#	150
#	13720
#	28004
#	43249
#	66435
#	79114
#	91986
#	110474
#	130835
#	143419
#	156658
#	170539
#
# Disc length: 3050 seconds
#
# Revision: 1
# Processed by: cddbd v1.5.2PL0 Copyright (c) Steve Scherf et al.
# Submitted via: audiograbber 1.83.01
#
DISCID=a10be80c
DTITLE=Cole Porter - The Cole Porter Songbook CD 2
DYEAR=2005
DGENRE=Jazz
TTITLE0=Bilie Hilliday - Night And Day
TTITLE1=Benny Goodman - You Do Something To Me
TTITLE2=Stephane Grappelli - I Get A Kick Out Of You
TTITLE3=Charlie Parker - I Love Paris
TTITLE4=Erroll Garner - Love For Sale
TTITLE5=Count Basie - From This Moment On
TTITLE6=Oscer Peterson - I Concentrate On You
TTITLE7=Coleman Howkins - Just One Of These Things
TTITLE8=Glenn Miller - Fresh As Daisy
TTITLE9=Tempo King and The Kings Of Tempo - Swingin' The Jinx Away
TTITLE10=Benny Goodman and Peggy Lee - Ev'ything I Love
TTITLE11=Miles Davis and Sonny Stitt - All Of You
EXTD=
EXTT0=
EXTT1=
EXTT2=
EXTT3=
EXTT4=
EXTT5=
EXTT6=
EXTT7=
EXTT8=
EXTT9=
EXTT10=
EXTT11=
PLAYORDER=
